<mxfile host="app.diagrams.net" modified="2023-11-16T11:14:37.027Z" agent="Mozilla/5.0 (X11; Linux x86_64; rv:109.0) Gecko/20100101 Firefox/111.0" version="22.1.2" etag="kbPwxpj9RQ3QLHCAnzm7" type="github">
  <diagram name="Страница — 1" id="2axHYxeO-4VpE9UikgM9">
    <mxGraphModel>
      <root>
        <mxCell id="0" />
        <mxCell id="1" parent="0" />
      </root>
    </mxGraphModel>
  </diagram>
</mxfile>
